<?xml version="1.0" encoding="UTF-8"?>
<svg width="383px" height="106px" viewBox="0 0 383 106" version="1.1" xmlns="http://www.w3.org/2000/svg" xmlns:xlink="http://www.w3.org/1999/xlink">
    <title>smily-formerly-bookingsync@1x</title>
    <g id="Page-1" stroke="none" stroke-width="1" fill="none" fill-rule="evenodd">
        <g id="smily-formerly-bookingsync" transform="translate(-0.000000, 0.000000)">
            <text id="formerly-BookingSync" font-family="OpenSans, Open Sans" font-size="18.8" font-weight="normal" letter-spacing="-0.375999984" fill="#627093">
                <tspan x="143" y="100">formerly BookingSync</tspan>
            </text>
            <path d="M169.073364,76.945245 C153.492939,76.945245 143,66.8771323 143,54.5834369 L155.824703,54.5834369 C155.930692,60.200384 161.336146,65.3934105 169.391331,65.3934105 C176.810581,65.3934105 181.580099,61.1542052 181.580099,55.431278 C181.580099,50.3442316 177.234538,47.3767879 171.08716,45.6811058 L161.972082,43.1375826 C146.285668,39.1103375 143.529946,29.6781057 143.529946,23.3192978 C143.529946,10.3897216 154.8708,2.01729107 168.331439,2.01729107 C181.686088,2.01729107 192.179027,10.2837414 192.179027,23.9551786 L179.354324,23.9551786 C179.354324,17.914311 174.796785,13.5691255 168.013471,13.5691255 C161.760103,13.5691255 156.566628,17.3844103 156.566628,23.1073375 C156.566628,25.12096 157.202564,29.4661455 165.575717,31.5857481 L174.266838,33.917311 C185.713681,37.096715 194.510791,43.2435627 194.510791,54.9013773 C194.510791,68.2548741 183.381917,76.945245 169.073364,76.945245 Z M261.889643,25.3602305 C274.277318,25.3602305 280.841727,33.712746 280.841727,48.0917599 L280.841727,75.7925072 L268.665807,75.7925072 L268.665807,49.0433122 C268.665807,41.113709 264.536582,37.2017714 258.819194,37.2017714 C251.725397,37.2017714 247.278539,42.4881736 247.807927,51.3693292 L247.70205,50.946417 L247.70205,75.7925072 L235.420252,75.7925072 L235.420252,49.0433122 C235.420252,41.113709 231.291028,37.2017714 225.997149,37.2017714 C220.279761,37.2017714 214.562373,40.3736127 214.562373,49.7834086 L214.562373,75.7925072 L202.280576,75.7925072 L202.280576,26.417511 L214.562373,26.417511 L214.562373,34.8757544 C216.362291,28.6377999 223.138455,25.3602305 229.279354,25.3602305 C236.479028,25.3602305 242.408172,28.7435279 245.266866,35.0872105 C249.184336,27.2633353 256.913398,25.3602305 261.889643,25.3602305 Z M290.913669,75.7925072 L290.913669,26.5129683 L303.28777,26.5129683 L303.28777,75.7925072 L290.913669,75.7925072 Z M313.935252,75.7925072 L313.935252,0 L326.309353,0 L326.309353,75.7925072 L313.935252,75.7925072 Z M369.720563,26.5129683 L383,26.5129683 L352.191705,100 L339.230975,100 L350.385702,72.5084486 L330.625899,26.5129683 L344.117808,26.5129683 L356.972303,57.8110422 L369.720563,26.5129683 Z M297.18705,17.2 C292.989686,17.2 289.58705,13.7973641 289.58705,9.6 C289.58705,5.4026359 292.989686,2 297.18705,2 C301.384414,2 304.78705,5.4026359 304.78705,9.6 C304.78705,13.7973641 301.384414,17.2 297.18705,17.2 Z" id="Smily-Copy-8" fill="#272B45" fill-rule="nonzero"></path>
            <path d="M62.0104231,77 C54.3904936,77 46.8364671,74.8206459 40.7397247,70.8635787 C34.0304551,66.5091707 29.2312319,60.1861197 26.8612909,52.5781613 C26.6219289,51.8095677 26.9739822,50.979911 27.691783,50.6215589 C27.9237274,50.5054528 28.171363,50.4504099 28.4164309,50.4504099 C28.9296757,50.4504099 29.4303674,50.6938027 29.7453325,51.1384459 C37.3438649,61.8603406 48.9718961,68.0099493 61.6472432,68.0099493 C74.3220198,68.0099493 85.920095,61.8620607 93.467845,51.1421728 C93.7822395,50.6958094 94.2843577,50.4504099 94.7995995,50.4504099 C95.0409586,50.4504099 95.2851707,50.5040194 95.5142621,50.6163986 C96.2323482,50.9687304 96.5903928,51.7926535 96.3595896,52.5615338 C94.0429986,60.2841648 89.3618873,66.6479247 82.8217973,70.9653507 C76.8417403,74.9132441 69.6451878,77 62.0104231,77 Z M49.0448555,28.6940777 C48.80207,28.6940777 48.5567167,28.6396081 48.3264841,28.5257955 L25.3380279,17.1726277 L2.3492864,28.5257955 C2.11933908,28.6396081 1.87398585,28.6940777 1.63120027,28.6940777 C1.11652908,28.6940777 0.61498144,28.4489648 0.300586956,28.0034615 C-0.162445937,27.3472471 -0.0831340793,26.4507935 0.487454821,25.8871774 L24.1951383,2.47015795 C24.5123858,2.1565282 24.9252068,2 25.3380279,2 C25.7511343,2 26.16367,2.1565282 26.4809175,2.47015795 L50.188601,25.8871774 C50.7591899,26.4507935 50.8385018,27.3472471 50.3754689,28.0034615 C50.0610744,28.4489648 49.5592414,28.6940777 49.0448555,28.6940777 Z M73.9551445,28.6940777 C73.4407586,28.6940777 72.9389256,28.4489648 72.6245311,28.0034615 C72.1614982,27.3472471 72.2408101,26.4507935 72.811399,25.8871774 L96.5190825,2.47015795 C96.83633,2.1565282 97.249151,2 97.6619721,2 C98.0747932,2 98.4876142,2.1565282 98.8048617,2.47015795 L122.512545,25.8871774 C123.083134,26.4507935 123.162446,27.3472471 122.699413,28.0034615 C122.385019,28.4489648 121.883471,28.6940777 121.3688,28.6940777 C121.126014,28.6940777 120.880661,28.6396081 120.650714,28.5257955 L97.6619721,17.1726277 L74.6735159,28.5257955 C74.4432833,28.6396081 74.19793,28.6940777 73.9551445,28.6940777 Z" id="Combined-Shape" fill="#1DC8CA" fill-rule="nonzero"></path>
        </g>
    </g>
</svg>